<svg width="95" height="95" viewBox="0 0 95 95" fill="none" xmlns="http://www.w3.org/2000/svg">
<path d="M0.622192 0.622559H45.4257V45.0112H0.622192V0.622559Z" fill="black" fill-opacity="0.2"/>
<path fill-rule="evenodd" clip-rule="evenodd" d="M45.2183 0.829982H0.829616V44.8038H45.2183V0.829982ZM0.622192 0.622559V45.0112H45.4257V0.622559H0.622192Z" fill="#4AFFD3"/>
<path d="M0.622192 49.5737H45.4257V93.5475H0.622192V49.5737Z" fill="black" fill-opacity="0.2"/>
<path fill-rule="evenodd" clip-rule="evenodd" d="M45.2183 49.7812H0.829616V93.3401H45.2183V49.7812ZM0.622192 49.5737V93.5475H45.4257V49.5737H0.622192Z" fill="#4AFFD3"/>
<path d="M49.5742 0.622559H94.3777V45.0112H49.5742V0.622559Z" fill="black" fill-opacity="0.2"/>
<path fill-rule="evenodd" clip-rule="evenodd" d="M94.1702 0.829982H49.7816V44.8038H94.1702V0.829982ZM49.5742 0.622559V45.0112H94.3777V0.622559H49.5742Z" fill="#4AFFD3"/>
<path d="M49.5742 49.5737H94.3777V93.5475H49.5742V49.5737Z" fill="black" fill-opacity="0.2"/>
<path fill-rule="evenodd" clip-rule="evenodd" d="M94.1702 49.7812H49.7816V93.3401H94.1702V49.7812ZM49.5742 49.5737V93.5475H94.3777V49.5737H49.5742Z" fill="#4AFFD3"/>
<path fill-rule="evenodd" clip-rule="evenodd" d="M5.2631 15.2259L5.2631 3.12402L8.95831 3.12402L8.95831 15.2259L5.2631 15.2259Z" fill="white"/>
<path fill-rule="evenodd" clip-rule="evenodd" d="M40.5062 7.88131L6.0022 7.88132L6.0022 6.72656L40.5062 6.72656L40.5062 7.88131Z" fill="white"/>
<path fill-rule="evenodd" clip-rule="evenodd" d="M40.1829 19.7978L4.93976 19.7978L4.93976 17.9502L40.1829 17.9502L40.1829 19.7978Z" fill="white"/>
<path fill-rule="evenodd" clip-rule="evenodd" d="M40.5063 27.9746H5.26324V26.127H40.5063V27.9746Z" fill="white"/>
<path fill-rule="evenodd" clip-rule="evenodd" d="M27.3106 37.7314H5.18555V35.8838H27.3106V37.7314Z" fill="white"/>
<path fill-rule="evenodd" clip-rule="evenodd" d="M10.575 25.526L10.5751 14.0708L14.2703 14.0708L14.2703 25.526L10.575 25.526Z" fill="white"/>
<path fill-rule="evenodd" clip-rule="evenodd" d="M18.566 25.526L18.566 14.0708L22.2612 14.0708L22.2612 25.526L18.566 25.526Z" fill="white"/>
<path fill-rule="evenodd" clip-rule="evenodd" d="M26.5569 25.526L26.5569 14.0708L30.2521 14.0708L30.2521 25.526L26.5569 25.526Z" fill="white"/>
<path fill-rule="evenodd" clip-rule="evenodd" d="M34.5477 25.526L34.5477 14.0708L38.2429 14.0708L38.2429 25.526L34.5477 25.526Z" fill="white"/>
<path fill-rule="evenodd" clip-rule="evenodd" d="M34.5247 40.2148C36.5527 40.2148 38.1968 38.5707 38.1968 36.5427C38.1968 34.5146 36.5527 32.8705 34.5247 32.8705C32.4966 32.8705 30.8525 34.5146 30.8525 36.5427C30.8525 38.5707 32.4966 40.2148 34.5247 40.2148ZM34.5247 42.5243C37.8282 42.5243 40.5063 39.8462 40.5063 36.5427C40.5063 33.2391 37.8282 30.561 34.5247 30.561C31.2211 30.561 28.543 33.2391 28.543 36.5427C28.543 39.8462 31.2211 42.5243 34.5247 42.5243Z" fill="white"/>
<path fill-rule="evenodd" clip-rule="evenodd" d="M78.7096 8.1441H54.7426V6.31641H80.5968V21.2991L55.2232 35.8434L54.262 34.2705L78.7096 20.257V8.1441Z" fill="white"/>
<path fill-rule="evenodd" clip-rule="evenodd" d="M79.3519 39.5217C83.2295 39.5217 86.3728 36.3783 86.3728 32.5008C86.3728 28.6233 83.2295 25.4799 79.3519 25.4799C75.4744 25.4799 72.331 28.6233 72.331 32.5008C72.331 36.3783 75.4744 39.5217 79.3519 39.5217ZM79.3519 42.5241C84.8876 42.5241 89.3752 38.0365 89.3752 32.5008C89.3752 26.9651 84.8876 22.4775 79.3519 22.4775C73.8162 22.4775 69.3287 26.9651 69.3287 32.5008C69.3287 38.0365 73.8162 42.5241 79.3519 42.5241Z" fill="white"/>
<path d="M81.6153 32.9169C81.6153 34.1924 80.5813 35.2264 79.3058 35.2264C78.0303 35.2264 76.9963 34.1924 76.9963 32.9169C76.9963 31.6414 78.0303 30.6074 79.3058 30.6074C80.5813 30.6074 81.6153 31.6414 81.6153 32.9169Z" fill="white"/>
<path fill-rule="evenodd" clip-rule="evenodd" d="M57.6426 21.1382V3.12402L61.3378 3.12402V21.1382H57.6426Z" fill="white"/>
<path fill-rule="evenodd" clip-rule="evenodd" d="M77.9662 21.1386H58.6125V19.291H77.9662V21.1386Z" fill="white"/>
<path fill-rule="evenodd" clip-rule="evenodd" d="M77.0057 21.0799L77.0057 6.31641L80.5969 6.31641L80.5969 21.0799L77.0057 21.0799Z" fill="white"/>
<path d="M36.7789 75.4445C36.7789 76.6783 35.7577 77.6785 34.4979 77.6785C33.2381 77.6785 32.2168 76.6783 32.2168 75.4445C32.2168 74.2107 33.2381 73.2104 34.4979 73.2104C35.7577 73.2104 36.7789 74.2107 36.7789 75.4445Z" fill="white"/>
<path fill-rule="evenodd" clip-rule="evenodd" d="M17.0369 85.1405V52.0889H20.8174V85.2982L20.8108 85.3738C20.7864 85.6566 20.7323 86.0928 20.6448 86.5416C20.5663 86.944 20.4267 87.5456 20.1689 88.043C19.7219 88.9052 19.3077 89.3033 19.0067 89.5925C18.9923 89.6064 18.9781 89.62 18.9642 89.6334C18.583 90.001 18.3534 90.1675 17.8019 90.522C17.0126 91.0295 15.9001 91.2957 15.6303 91.3602C15.6208 91.3625 15.6124 91.3645 15.6051 91.3663C15.1684 91.4716 14.7199 91.4891 14.5323 91.4891H8.67255V87.843H14.5288C14.5304 87.843 14.5376 87.8428 14.5501 87.8422C14.5685 87.8414 14.5916 87.8399 14.6162 87.8376C14.6412 87.8353 14.6626 87.8327 14.679 87.8302C14.6864 87.8291 14.6911 87.8283 14.6932 87.8279C14.822 87.7968 15.0363 87.7433 15.2621 87.6693C15.5181 87.5854 15.6635 87.5149 15.7048 87.4883C15.9533 87.3286 16.0513 87.261 16.1112 87.2157C16.1509 87.1856 16.1853 87.1572 16.291 87.0553C16.3093 87.0376 16.3261 87.0214 16.3415 87.0066C16.4605 86.892 16.4975 86.8564 16.5478 86.7954C16.5935 86.7401 16.6721 86.6346 16.7861 86.4152C16.7857 86.4158 16.7856 86.4161 16.7855 86.4161C16.7852 86.416 16.8047 86.3728 16.8348 86.2696C16.867 86.1592 16.8993 86.0221 16.9295 85.8675C16.9829 85.5935 17.0188 85.3202 17.0369 85.1405Z" fill="white"/>
<path fill-rule="evenodd" clip-rule="evenodd" d="M4.93986 85.1547L4.93986 58.813L8.71478 58.813L8.71478 85.1547L4.93986 85.1547Z" fill="white"/>
<path fill-rule="evenodd" clip-rule="evenodd" d="M34.4978 81.9729C38.1791 81.9729 41.1633 79.0502 41.1633 75.4449C41.1633 71.8396 38.1791 68.9169 34.4978 68.9169C30.8166 68.9169 27.8324 71.8396 27.8324 75.4449C27.8324 79.0502 30.8166 81.9729 34.4978 81.9729ZM34.4978 84.5841C39.6515 84.5841 43.8295 80.4923 43.8295 75.4449C43.8295 70.3974 39.6515 66.3057 34.4978 66.3057C29.3441 66.3057 25.1662 70.3974 25.1662 75.4449C25.1662 80.4923 29.3441 84.5841 34.4978 84.5841Z" fill="white"/>
<path fill-rule="evenodd" clip-rule="evenodd" d="M72.2371 56.8949C73.0809 56.8949 73.7649 56.225 73.7649 55.3987C73.7649 54.5723 73.0809 53.9025 72.2371 53.9025C71.3934 53.9025 70.7094 54.5723 70.7094 55.3987C70.7094 56.225 71.3934 56.8949 72.2371 56.8949ZM72.2371 58.7085C74.1036 58.7085 75.6166 57.2266 75.6166 55.3987C75.6166 53.5707 74.1036 52.0889 72.2371 52.0889C70.3707 52.0889 68.8577 53.5707 68.8577 55.3987C68.8577 57.2266 70.3707 58.7085 72.2371 58.7085Z" fill="white"/>
<path fill-rule="evenodd" clip-rule="evenodd" d="M69.9687 85.1644V74.7588H73.6723V85.3381L73.6645 85.4209C73.6376 85.7077 73.5783 86.1477 73.4824 86.6004C73.3965 87.0058 73.2424 87.6187 72.9571 88.1256C72.4729 88.9856 72.0272 89.3798 71.7082 89.6619C71.6919 89.6763 71.676 89.6903 71.6604 89.7042C71.2568 90.0626 71.0183 90.2218 70.43 90.5702C69.6169 91.0516 68.4609 91.3067 68.1709 91.3707C68.1615 91.3727 68.1531 91.3746 68.1456 91.3763C67.7121 91.4725 67.2598 91.4891 67.0725 91.4891H63.6264V87.862H67.0725C67.0721 87.862 67.0721 87.862 67.0726 87.862C67.0751 87.8619 67.0878 87.8617 67.1095 87.8608C67.1345 87.8597 67.165 87.8579 67.1975 87.8551C67.2304 87.8523 67.2607 87.849 67.2864 87.8454C67.299 87.8437 67.309 87.8421 67.3164 87.8408C67.324 87.8395 67.3274 87.8387 67.3268 87.8388C67.4679 87.8075 67.7128 87.7516 67.9727 87.6732C68.2597 87.5866 68.4433 87.508 68.514 87.4661C68.7827 87.307 68.8945 87.2364 68.9655 87.1869C69.0157 87.1518 69.0575 87.1194 69.1726 87.0172C69.1924 86.9996 69.2105 86.9835 69.2273 86.9687C69.3558 86.8548 69.3992 86.8163 69.4561 86.7528C69.5071 86.696 69.5903 86.5926 69.71 86.3811C69.7097 86.3809 69.7281 86.3424 69.7572 86.2505C69.7904 86.1458 69.8242 86.0141 69.8561 85.8636C69.9118 85.6007 69.9494 85.3384 69.9687 85.1644Z" fill="white"/>
<path fill-rule="evenodd" clip-rule="evenodd" d="M89.69 59.797H53.9045V57.9834H89.69V59.797Z" fill="white"/>
<path fill-rule="evenodd" clip-rule="evenodd" d="M77.9416 66.6769V61.3838H81.6451V66.7321L81.6444 66.7575C81.6064 68.0864 80.9131 71.0816 78.2115 72.8304C75.7657 74.4136 73.5932 74.545 72.0599 74.3938L72.431 70.7849C73.3158 70.8721 74.5871 70.8287 76.1694 69.8044C77.482 68.9548 77.9144 67.3484 77.9416 66.6769Z" fill="white"/>
<path fill-rule="evenodd" clip-rule="evenodd" d="M82.4472 66.6773V61.3838H78.7437V66.7318L78.7444 66.7568C78.7817 68.077 79.4617 71.0716 82.1338 72.8243C83.4349 73.6777 84.9446 74.0868 86.2104 74.2791C87.486 74.4729 88.6636 74.4688 89.4163 74.3936L89.0404 70.7851C88.5999 70.8291 87.7393 70.8409 86.7781 70.6948C85.807 70.5473 84.8812 70.2609 84.1947 69.8105C82.9048 68.9645 82.4742 67.3571 82.4472 66.6773Z" fill="white"/>
<path fill-rule="evenodd" clip-rule="evenodd" d="M65.653 66.6769V61.3838H61.9495V66.7321L61.9502 66.7575C61.9882 68.0864 62.6815 71.0816 65.3831 72.8304C67.8289 74.4136 70.0014 74.545 71.5347 74.3938L71.1636 70.7849C70.2788 70.8721 69.0075 70.8287 67.4252 69.8044C66.1126 68.9548 65.6802 67.3484 65.653 66.6769Z" fill="white"/>
<path fill-rule="evenodd" clip-rule="evenodd" d="M61.1476 66.6773V61.3838H64.8511V66.7318L64.8504 66.7568C64.8131 68.077 64.1331 71.0716 61.461 72.8243C60.1598 73.6777 58.6502 74.0868 57.3844 74.2791C56.1088 74.4729 54.9311 74.4688 54.1785 74.3936L54.5544 70.7851C54.9949 70.8291 55.8554 70.8409 56.8167 70.6948C57.7878 70.5473 58.7136 70.2609 59.4001 69.8105C60.6899 68.9645 61.1206 67.3571 61.1476 66.6773Z" fill="white"/>
<path fill-rule="evenodd" clip-rule="evenodd" d="M89.3198 78.9298L54.3213 78.9298L54.3214 77.1162L89.3198 77.1162L89.3198 78.9298Z" fill="white"/>
<path fill-rule="evenodd" clip-rule="evenodd" d="M48.952 0H59.9454V1.24454H50.1965V10.9934H48.952V0Z" fill="#4AFFD3"/>
<path fill-rule="evenodd" clip-rule="evenodd" d="M48.952 48.9521H59.9454V50.1967H50.1965V59.9456H48.952V48.9521Z" fill="#4AFFD3"/>
<path fill-rule="evenodd" clip-rule="evenodd" d="M0 48.9521H10.9934V50.1967H1.24454V59.9456H0V48.9521Z" fill="#4AFFD3"/>
<path fill-rule="evenodd" clip-rule="evenodd" d="M0 0H10.9934V1.24454H1.24454V10.9934H0V0Z" fill="#4AFFD3"/>
<path fill-rule="evenodd" clip-rule="evenodd" d="M48.952 45.6328H59.9454V44.3883H50.1965V34.6394H48.952V45.6328Z" fill="#4AFFD3"/>
<path fill-rule="evenodd" clip-rule="evenodd" d="M48.952 94.1699H59.9454V92.9254H50.1965V83.1765H48.952V94.1699Z" fill="#4AFFD3"/>
<path fill-rule="evenodd" clip-rule="evenodd" d="M0 94.1699H10.9934V92.9254H1.24454V83.1765H0V94.1699Z" fill="#4AFFD3"/>
<path fill-rule="evenodd" clip-rule="evenodd" d="M0 45.6328H10.9934V44.3883H1.24454V34.6394H0V45.6328Z" fill="#4AFFD3"/>
<path fill-rule="evenodd" clip-rule="evenodd" d="M95 0H84.0066V1.24454H93.7555V10.9934H95V0Z" fill="#4AFFD3"/>
<path fill-rule="evenodd" clip-rule="evenodd" d="M95 48.9521H84.0066V50.1967H93.7555V59.9456H95V48.9521Z" fill="#4AFFD3"/>
<path fill-rule="evenodd" clip-rule="evenodd" d="M46.0481 48.9521H35.0546V50.1967H44.8036V59.9456H46.0481V48.9521Z" fill="#4AFFD3"/>
<path fill-rule="evenodd" clip-rule="evenodd" d="M46.0481 0H35.0546V1.24454H44.8036V10.9934H46.0481V0Z" fill="#4AFFD3"/>
<path fill-rule="evenodd" clip-rule="evenodd" d="M95 45.6328H84.0066V44.3883H93.7555V34.6394H95V45.6328Z" fill="#4AFFD3"/>
<path fill-rule="evenodd" clip-rule="evenodd" d="M95 94.1699H84.0066V92.9254H93.7555V83.1765H95V94.1699Z" fill="#4AFFD3"/>
<path fill-rule="evenodd" clip-rule="evenodd" d="M46.0481 94.1699H35.0546V92.9254H44.8036V83.1765H46.0481V94.1699Z" fill="#4AFFD3"/>
<path fill-rule="evenodd" clip-rule="evenodd" d="M46.0481 45.6328H35.0546V44.3883H44.8036V34.6394H46.0481V45.6328Z" fill="#4AFFD3"/>
</svg>
