<svg width="206" height="204" viewBox="0 0 206 204" fill="none" xmlns="http://www.w3.org/2000/svg">
<rect x="2.25" y="2.25" width="95.9286" height="95.0358" fill="black" fill-opacity="0.2" stroke="#4AFFD3" stroke-width="0.5"/>
<rect x="2.25" y="107.607" width="95.9286" height="94.1429" fill="black" fill-opacity="0.2" stroke="#4AFFD3" stroke-width="0.5"/>
<rect x="107.607" y="2.25" width="95.9286" height="95.0358" fill="black" fill-opacity="0.2" stroke="#4AFFD3" stroke-width="0.5"/>
<rect x="107.607" y="107.607" width="95.9286" height="94.1429" fill="black" fill-opacity="0.2" stroke="#4AFFD3" stroke-width="0.5"/>
<path fill-rule="evenodd" clip-rule="evenodd" d="M11.9885 33.431L11.9885 7.38477L19.9415 7.38477L19.9415 33.431L11.9885 33.431Z" fill="white"/>
<path fill-rule="evenodd" clip-rule="evenodd" d="M87.8408 17.6243L13.5792 17.6243L13.5792 15.139L87.8408 15.139L87.8408 17.6243Z" fill="white"/>
<path fill-rule="evenodd" clip-rule="evenodd" d="M87.1448 43.2727L11.2926 43.2727L11.2926 39.2962L87.1448 39.2962L87.1448 43.2727Z" fill="white"/>
<path fill-rule="evenodd" clip-rule="evenodd" d="M87.8409 60.8689H11.9886V56.8924H87.8409V60.8689Z" fill="white"/>
<path fill-rule="evenodd" clip-rule="evenodd" d="M59.4404 81.8694H11.8215V77.8929H59.4404V81.8694Z" fill="white"/>
<path fill-rule="evenodd" clip-rule="evenodd" d="M23.4212 55.5999L23.4212 30.9454L31.3742 30.9454L31.3742 55.5999L23.4212 55.5999Z" fill="white"/>
<path fill-rule="evenodd" clip-rule="evenodd" d="M40.6194 55.5999L40.6194 30.9454L48.5724 30.9454L48.5724 55.5999L40.6194 55.5999Z" fill="white"/>
<path fill-rule="evenodd" clip-rule="evenodd" d="M57.8182 55.5999L57.8182 30.9454L65.7712 30.9454L65.7712 55.5999L57.8182 55.5999Z" fill="white"/>
<path fill-rule="evenodd" clip-rule="evenodd" d="M75.0164 55.5999L75.0164 30.9454L82.9694 30.9454L82.9694 55.5999L75.0164 55.5999Z" fill="white"/>
<path fill-rule="evenodd" clip-rule="evenodd" d="M74.9667 87.2133C79.3316 87.2133 82.87 83.6748 82.87 79.31C82.87 74.9451 79.3316 71.4066 74.9667 71.4066C70.6018 71.4066 67.0633 74.9451 67.0633 79.31C67.0633 83.6748 70.6018 87.2133 74.9667 87.2133ZM74.9667 92.1839C82.0768 92.1839 87.8407 86.4201 87.8407 79.31C87.8407 72.1998 82.0768 66.436 74.9667 66.436C67.8566 66.436 62.0927 72.1998 62.0927 79.31C62.0927 86.4201 67.8566 92.1839 74.9667 92.1839Z" fill="white"/>
<path fill-rule="evenodd" clip-rule="evenodd" d="M170.064 18.1884H118.481V14.2548H174.126V46.5013L119.515 77.8043L117.446 74.4191L170.064 44.2585V18.1884Z" fill="white"/>
<path fill-rule="evenodd" clip-rule="evenodd" d="M171.446 85.7219C179.792 85.7219 186.557 78.9566 186.557 70.6112C186.557 62.2657 179.792 55.5004 171.446 55.5004C163.101 55.5004 156.336 62.2657 156.336 70.6112C156.336 78.9566 163.101 85.7219 171.446 85.7219ZM171.446 92.1838C183.361 92.1838 193.019 82.5254 193.019 70.6112C193.019 58.6969 183.361 49.0385 171.446 49.0385C159.532 49.0385 149.874 58.6969 149.874 70.6112C149.874 82.5254 159.532 92.1838 171.446 92.1838Z" fill="white"/>
<path d="M176.317 71.506C176.317 74.2512 174.092 76.4767 171.347 76.4767C168.602 76.4767 166.376 74.2512 166.376 71.506C166.376 68.7608 168.602 66.5354 171.347 66.5354C174.092 66.5354 176.317 68.7608 176.317 71.506Z" fill="white"/>
<path fill-rule="evenodd" clip-rule="evenodd" d="M124.722 46.1558V7.38477L132.675 7.38477V46.1558H124.722Z" fill="white"/>
<path fill-rule="evenodd" clip-rule="evenodd" d="M168.464 46.1557H126.81V42.1791H168.464V46.1557Z" fill="white"/>
<path fill-rule="evenodd" clip-rule="evenodd" d="M166.397 46.0295L166.397 14.2548L174.126 14.2548L174.126 46.0295L166.397 46.0295Z" fill="white"/>
<path d="M79.9936 161.67C79.9936 164.325 77.7956 166.478 75.0842 166.478C72.3728 166.478 70.1748 164.325 70.1748 161.67C70.1748 159.014 72.3728 156.862 75.0842 156.862C77.7956 156.862 79.9936 159.014 79.9936 161.67Z" fill="white"/>
<path fill-rule="evenodd" clip-rule="evenodd" d="M37.3285 183.905V112.769H45.465V184.244L45.451 184.407C45.3984 185.015 45.282 185.954 45.0936 186.92C44.9247 187.786 44.6243 189.081 44.0693 190.152C43.1073 192.007 42.2158 192.864 41.5681 193.487C41.537 193.516 41.5065 193.546 41.4765 193.575C40.6562 194.366 40.1619 194.724 38.9749 195.487C37.2761 196.579 34.8819 197.152 34.3011 197.291C34.2808 197.296 34.2627 197.3 34.2469 197.304C33.307 197.531 32.3417 197.569 31.938 197.569H19.3263V189.721H31.9304C31.9339 189.721 31.9494 189.721 31.9762 189.72C32.0159 189.718 32.0656 189.714 32.1186 189.71C32.1723 189.705 32.2185 189.699 32.2537 189.694C32.2696 189.691 32.2797 189.69 32.2843 189.689C32.5616 189.622 33.0228 189.507 33.5086 189.347C34.0598 189.167 34.3725 189.015 34.4615 188.958C34.9963 188.614 35.2073 188.469 35.3362 188.371C35.4216 188.306 35.4957 188.245 35.7231 188.026C35.7626 187.988 35.7987 187.953 35.8318 187.921C36.0879 187.674 36.1675 187.598 36.2759 187.467C36.3743 187.347 36.5435 187.12 36.7887 186.648C36.788 186.65 36.7876 186.65 36.7875 186.65C36.7869 186.65 36.8288 186.557 36.8935 186.335C36.9628 186.097 37.0324 185.802 37.0973 185.47C37.2123 184.88 37.2895 184.292 37.3285 183.905Z" fill="white"/>
<path fill-rule="evenodd" clip-rule="evenodd" d="M11.2927 183.935L11.2927 127.241L19.4173 127.241L19.4173 183.935L11.2927 183.935Z" fill="white"/>
<path fill-rule="evenodd" clip-rule="evenodd" d="M75.0841 175.72C83.007 175.72 89.4298 169.43 89.4298 161.67C89.4298 153.91 83.007 147.62 75.0841 147.62C67.1611 147.62 60.7383 153.91 60.7383 161.67C60.7383 169.43 67.1611 175.72 75.0841 175.72ZM75.0841 181.34C86.1762 181.34 95.1681 172.533 95.1681 161.67C95.1681 150.807 86.1762 142 75.0841 142C63.9919 142 55 150.807 55 161.67C55 172.533 63.9919 181.34 75.0841 181.34Z" fill="white"/>
<path fill-rule="evenodd" clip-rule="evenodd" d="M156.133 123.113C157.949 123.113 159.421 121.671 159.421 119.893C159.421 118.114 157.949 116.672 156.133 116.672C154.318 116.672 152.845 118.114 152.845 119.893C152.845 121.671 154.318 123.113 156.133 123.113ZM156.133 127.016C160.151 127.016 163.407 123.827 163.407 119.893C163.407 115.958 160.151 112.769 156.133 112.769C152.116 112.769 148.86 115.958 148.86 119.893C148.86 123.827 152.116 127.016 156.133 127.016Z" fill="white"/>
<path fill-rule="evenodd" clip-rule="evenodd" d="M151.251 183.956V161.561H159.222V184.33L159.206 184.508C159.148 185.126 159.02 186.072 158.814 187.047C158.629 187.919 158.297 189.238 157.683 190.329C156.641 192.18 155.682 193.029 154.995 193.636C154.96 193.667 154.926 193.697 154.892 193.727C154.024 194.498 153.51 194.841 152.244 195.591C150.494 196.627 148.006 197.176 147.382 197.314C147.362 197.318 147.344 197.322 147.327 197.326C146.394 197.533 145.421 197.569 145.018 197.569H137.601V189.762H145.018C145.017 189.762 145.017 189.762 145.018 189.762C145.023 189.762 145.051 189.762 145.098 189.759C145.151 189.757 145.217 189.753 145.287 189.747C145.358 189.741 145.423 189.734 145.478 189.726C145.505 189.723 145.527 189.719 145.543 189.716C145.559 189.714 145.566 189.712 145.565 189.712C145.869 189.645 146.396 189.524 146.955 189.356C147.573 189.169 147.968 189 148.12 188.91C148.699 188.568 148.939 188.416 149.092 188.309C149.2 188.234 149.29 188.164 149.538 187.944C149.58 187.906 149.62 187.871 149.655 187.84C149.932 187.594 150.026 187.511 150.148 187.375C150.258 187.253 150.437 187.03 150.694 186.575C150.694 186.574 150.733 186.491 150.796 186.294C150.867 186.068 150.94 185.785 151.009 185.461C151.129 184.895 151.21 184.331 151.251 183.956Z" fill="white"/>
<path fill-rule="evenodd" clip-rule="evenodd" d="M193.697 129.358H116.677V125.455H193.697V129.358Z" fill="white"/>
<path fill-rule="evenodd" clip-rule="evenodd" d="M168.411 144.166V132.774H176.382V144.285L176.38 144.339C176.298 147.199 174.806 153.646 168.992 157.41C163.728 160.817 159.052 161.1 155.752 160.775L156.551 153.007C158.455 153.195 161.191 153.101 164.597 150.897C167.422 149.068 168.352 145.611 168.411 144.166Z" fill="white"/>
<path fill-rule="evenodd" clip-rule="evenodd" d="M178.108 144.167V132.774H170.137V144.284L170.138 144.338C170.219 147.179 171.682 153.624 177.433 157.397C180.234 159.233 183.483 160.114 186.207 160.528C188.953 160.945 191.487 160.936 193.107 160.774L192.298 153.008C191.35 153.103 189.498 153.128 187.429 152.813C185.339 152.496 183.347 151.879 181.869 150.91C179.093 149.089 178.166 145.63 178.108 144.167Z" fill="white"/>
<path fill-rule="evenodd" clip-rule="evenodd" d="M141.963 144.166V132.774H133.992V144.285L133.993 144.339C134.075 147.199 135.567 153.646 141.382 157.41C146.646 160.817 151.322 161.1 154.622 160.775L153.823 153.007C151.919 153.195 149.183 153.101 145.777 150.897C142.952 149.068 142.021 145.611 141.963 144.166Z" fill="white"/>
<path fill-rule="evenodd" clip-rule="evenodd" d="M132.266 144.167V132.774H140.237V144.284L140.235 144.338C140.155 147.179 138.692 153.624 132.94 157.396C130.14 159.233 126.891 160.114 124.167 160.528C121.421 160.945 118.886 160.936 117.267 160.774L118.076 153.008C119.024 153.102 120.876 153.128 122.945 152.813C125.035 152.496 127.027 151.879 128.505 150.91C131.281 149.089 132.208 145.63 132.266 144.167Z" fill="white"/>
<path fill-rule="evenodd" clip-rule="evenodd" d="M192.9 170.538L117.574 170.538L117.574 166.635L192.9 166.635L192.9 170.538Z" fill="white"/>
<path d="M107.357 24.3214V2H129.679" stroke="#4AFFD3" stroke-width="3"/>
<path d="M107.357 129.679V107.357H129.679" stroke="#4AFFD3" stroke-width="3"/>
<path d="M2 129.679V107.357H24.3214" stroke="#4AFFD3" stroke-width="3"/>
<path d="M2 24.3214V2H24.3214" stroke="#4AFFD3" stroke-width="3"/>
<path d="M107.357 75.2143V97.5358H129.679" stroke="#4AFFD3" stroke-width="3"/>
<path d="M107.357 179.679V202H129.679" stroke="#4AFFD3" stroke-width="3"/>
<path d="M2 179.679V202H24.3214" stroke="#4AFFD3" stroke-width="3"/>
<path d="M2 75.2143V97.5358H24.3214" stroke="#4AFFD3" stroke-width="3"/>
<path d="M203.786 24.3214V2H181.464" stroke="#4AFFD3" stroke-width="3"/>
<path d="M203.786 129.679V107.357H181.464" stroke="#4AFFD3" stroke-width="3"/>
<path d="M98.4286 129.679V107.357H76.1072" stroke="#4AFFD3" stroke-width="3"/>
<path d="M98.4286 24.3214V2H76.1072" stroke="#4AFFD3" stroke-width="3"/>
<path d="M203.786 75.2143V97.5358H181.464" stroke="#4AFFD3" stroke-width="3"/>
<path d="M203.786 179.679V202H181.464" stroke="#4AFFD3" stroke-width="3"/>
<path d="M98.4286 179.679V202H76.1072" stroke="#4AFFD3" stroke-width="3"/>
<path d="M98.4286 75.2143V97.5358H76.1072" stroke="#4AFFD3" stroke-width="3"/>
</svg>
