<svg width="230" height="150" viewBox="0 0 230 150" fill="none" xmlns="http://www.w3.org/2000/svg">
<path fill-rule="evenodd" clip-rule="evenodd" d="M27 22L54 22L54 18L27 18L27 22Z" fill="#4AFFD3"/>
<path fill-rule="evenodd" clip-rule="evenodd" d="M31 43L31 19L27 19L27 43L31 43Z" fill="#4AFFD3"/>
<path fill-rule="evenodd" clip-rule="evenodd" d="M27 127L54 127L54 131L27 131L27 127Z" fill="#4AFFD3"/>
<path fill-rule="evenodd" clip-rule="evenodd" d="M31 106L31 130L27 130L27 106L31 106Z" fill="#4AFFD3"/>
<path fill-rule="evenodd" clip-rule="evenodd" d="M204 22L177 22L177 18L204 18L204 22Z" fill="#4AFFD3"/>
<path fill-rule="evenodd" clip-rule="evenodd" d="M200 43L200 19L204 19L204 43L200 43Z" fill="#4AFFD3"/>
<path fill-rule="evenodd" clip-rule="evenodd" d="M29.1426 20.2818L29.1426 129.594L200.372 129.594L200.372 20.2818L29.1426 20.2818ZM27.8823 130.407L201.632 130.407L201.632 19.4685L27.8823 19.4685L27.8823 130.407Z" fill="#4AFFD3"/>
<path fill-rule="evenodd" clip-rule="evenodd" d="M204 127L177 127L177 131L204 131L204 127Z" fill="#4AFFD3"/>
<path fill-rule="evenodd" clip-rule="evenodd" d="M200 106L200 130L204 130L204 106L200 106Z" fill="#4AFFD3"/>
<line x1="190" y1="75.5" x2="230" y2="75.5" stroke="#4AFFD3"/>
<line y1="76.5" x2="40" y2="76.5" stroke="#4AFFD3"/>
<line x1="114.5" y1="40" x2="114.5" stroke="#4AFFD3"/>
<line x1="114.5" y1="150" x2="114.5" y2="110" stroke="#4AFFD3"/>
</svg>
