<svg width="244" height="244" viewBox="0 0 244 244" fill="none" xmlns="http://www.w3.org/2000/svg">
<path fill-rule="evenodd" clip-rule="evenodd" d="M32.5333 208.213L56.3911 208.213L56.3911 213.093L32.5333 213.093L32.5333 208.213Z" fill="#4AFFD3"/>
<path fill-rule="evenodd" clip-rule="evenodd" d="M37.4133 189.235L37.4133 213.093L32.5333 213.093L32.5333 189.235L37.4133 189.235Z" fill="#4AFFD3"/>
<path fill-rule="evenodd" clip-rule="evenodd" d="M150.738 208.213L126.88 208.213L126.88 213.093L150.738 213.093L150.738 208.213Z" fill="#4AFFD3"/>
<path fill-rule="evenodd" clip-rule="evenodd" d="M146.4 189.235L146.4 213.093L151.28 213.093L151.28 189.235L146.4 189.235Z" fill="#4AFFD3"/>
<path fill-rule="evenodd" clip-rule="evenodd" d="M32.5334 99.2267L56.3912 99.2267L56.3912 94.3467L32.5334 94.3467L32.5334 99.2267Z" fill="#4AFFD3"/>
<path fill-rule="evenodd" clip-rule="evenodd" d="M37.4133 118.746L37.4133 94.8887L32.5333 94.8887L32.5333 118.746L37.4133 118.746Z" fill="#4AFFD3"/>
<path fill-rule="evenodd" clip-rule="evenodd" d="M150.737 102.968L126.88 102.968L126.88 98.0881L150.737 98.0881L150.737 102.968Z" fill="#4AFFD3"/>
<path fill-rule="evenodd" clip-rule="evenodd" d="M146.4 122L146.4 98.1421L151.28 98.1421L151.28 122L146.4 122Z" fill="#4AFFD3"/>
<path fill-rule="evenodd" clip-rule="evenodd" d="M37.1429 99.2821L37.1429 208.594L147.648 208.594L147.648 99.2821L37.1429 99.2821ZM36.3295 209.407L148.461 209.407L148.461 98.4687L36.3295 98.4687L36.3295 209.407Z" fill="#4AFFD3"/>
<path fill-rule="evenodd" clip-rule="evenodd" d="M95.9733 -1.2281e-07L95.9733 244L94.3467 244L94.3467 0L95.9733 -1.2281e-07Z" fill="#4AFFD3"/>
<path fill-rule="evenodd" clip-rule="evenodd" d="M244 154.533L-9.05017e-08 154.533L0 152.907L244 152.907L244 154.533Z" fill="#4AFFD3"/>
</svg>
