<svg width="774" height="150" viewBox="0 0 774 150" fill="none" xmlns="http://www.w3.org/2000/svg">
<path fill-rule="evenodd" clip-rule="evenodd" d="M20.0001 128L34.6667 128L34.6667 131L20.0001 131L20.0001 128Z" fill="#4AFFD3"/>
<path fill-rule="evenodd" clip-rule="evenodd" d="M23 116.333L23 131L20 131L20 116.333L23 116.333Z" fill="#4AFFD3"/>
<path fill-rule="evenodd" clip-rule="evenodd" d="M93.6667 128L79 128L79 131L93.6667 131L93.6667 128Z" fill="#4AFFD3"/>
<path fill-rule="evenodd" clip-rule="evenodd" d="M91 116.333L91 131L94 131L94 116.333L91 116.333Z" fill="#4AFFD3"/>
<path fill-rule="evenodd" clip-rule="evenodd" d="M20.0001 61L34.6667 61L34.6667 58L20.0001 58L20.0001 61Z" fill="#4AFFD3"/>
<path fill-rule="evenodd" clip-rule="evenodd" d="M23 73L23 58.3333L20 58.3333L20 73L23 73Z" fill="#4AFFD3"/>
<path fill-rule="evenodd" clip-rule="evenodd" d="M93.6667 61L79 61L79 58L93.6667 58L93.6667 61Z" fill="#4AFFD3"/>
<path fill-rule="evenodd" clip-rule="evenodd" d="M91.0002 72.7L91.0002 58.0333L94.0002 58.0333L94.0002 72.7L91.0002 72.7Z" fill="#4AFFD3"/>
<path fill-rule="evenodd" clip-rule="evenodd" d="M22.8337 61.034L22.8337 128.234L90.7671 128.234L90.7671 61.034L22.8337 61.034ZM22.3337 128.734L91.2671 128.734L91.2671 60.534L22.3337 60.534L22.3337 128.734Z" fill="#4AFFD3"/>
<path fill-rule="evenodd" clip-rule="evenodd" d="M59 -7.54979e-08L59 150L58 150L58 0L59 -7.54979e-08Z" fill="#4AFFD3"/>
<path fill-rule="evenodd" clip-rule="evenodd" d="M774 95L-5.56339e-08 95L0 94L774 94L774 95Z" fill="#4AFFD3"/>
</svg>
