<svg xmlns="http://www.w3.org/2000/svg" viewBox="0 0 407 528"><title>nobody</title><g id="圖層_2" data-name="圖層 2"><path d="M20.28,317.3a29.19,29.19,0,0,0,5.86-2.59,15.75,15.75,0,0,0,4.74-4.23h0a28.68,28.68,0,0,0,2.82-8.12,64.82,64.82,0,0,0,1.12-8.57c.4-5.75.19-11.53.23-17.31L35,241.81l-.13-69.35L35,103.11l0-17.33c0-5.78.08-11.57,0-17.33s-.62-11.57-2.34-17.08a21.26,21.26,0,0,0-1.67-4,10,10,0,0,0-2.75-3.27,18.14,18.14,0,0,0-8-3.13,18.23,18.23,0,0,1,8,3,10,10,0,0,1,2.82,3.28,21,21,0,0,1,1.74,4c1.8,5.53,2.32,11.37,2.57,17.14.13,2.89.09,5.78.1,8.67l0,8.67,0,17.33.15,69.35-.12,69.35-.08,34.67c-.05,5.77.13,11.56-.36,17.34a63.83,63.83,0,0,1-1.23,8.6A29,29,0,0,1,31,310.57h0a15.72,15.72,0,0,1-4.83,4.21A29,29,0,0,1,20.28,317.3Z"/><path d="M72.88,41a11,11,0,0,0-8.07,3.53,21,21,0,0,0-4.22,7.91c-.47,1.44-.79,2.92-1.12,4.39s-.54,3-.69,4.48c-.39,3-.52,6-.64,9s0,6,0,9.07l0,9.09,0,18.17.16,72.68-.16,72.69-.07,36.34c0,3,.15,6,.45,9.05a48.7,48.7,0,0,0,1.65,8.89,22.42,22.42,0,0,0,1.67,4.2A11.32,11.32,0,0,0,64.7,314a18.83,18.83,0,0,0,8.18,3.71,19.07,19.07,0,0,1-8.26-3.62,11.49,11.49,0,0,1-2.91-3.48A22.77,22.77,0,0,1,60,306.4a47.6,47.6,0,0,1-1.77-8.92c-.34-3-.51-6.05-.57-9.09l-.1-36.34-.15-72.69.15-72.68,0-18.17,0-9.09c0-3,0-6,.09-9.09s.32-6.06.76-9.07c.17-1.51.48-3,.75-4.49s.69-3,1.18-4.4a21.09,21.09,0,0,1,4.36-7.92A11.07,11.07,0,0,1,72.88,41Z"/><path d="M26,318a8.07,8.07,0,0,0,3.49-2.09l.71-.73.64-.81a17.38,17.38,0,0,0,1.14-1.7A28.65,28.65,0,0,0,34.82,305a72.11,72.11,0,0,0,1.4-16.33l-.09-32.92L36,189.92h.89v1.54H36c-.06-12.84,0-25.68,0-38.52l.08-38.51.09-38.52c0-6.41.22-12.85-.82-19.18a34,34,0,0,0-2.77-9.16,15.88,15.88,0,0,0-2.65-4A8.45,8.45,0,0,0,26,41a8.54,8.54,0,0,1,4,2.55,16.27,16.27,0,0,1,2.71,4,34.76,34.76,0,0,1,2.91,9.17c1.12,6.35,1,12.83,1.05,19.23l.08,38.52.09,38.51c0,12.84.09,25.68,0,38.52H36v-1.54h.89l-.14,65.84-.09,32.92A72.66,72.66,0,0,1,35,305.06a29,29,0,0,1-3,7.66,16.52,16.52,0,0,1-1.17,1.7l-.65.8-.73.73A8.05,8.05,0,0,1,26,318Z"/><path d="M30.56,318a12.23,12.23,0,0,0,3-3.17A21,21,0,0,0,35.62,311a35.79,35.79,0,0,0,2.27-8.45c.89-5.79.55-11.67.56-17.53l-.08-35.16-.16-70.33.16-70.33L38.45,74c0-5.86.33-11.74-.56-17.53A35.79,35.79,0,0,0,35.62,48a21,21,0,0,0-2.06-3.86,12.23,12.23,0,0,0-3-3.17,12,12,0,0,1,3.05,3.14A21.17,21.17,0,0,1,35.73,48a36.4,36.4,0,0,1,2.39,8.45c1,5.82.7,11.72.79,17.57L39,109.17l.15,70.33L39,249.83,38.91,285c-.09,5.85.18,11.75-.79,17.57A36.4,36.4,0,0,1,35.73,311a21.51,21.51,0,0,1-2.12,3.85A12,12,0,0,1,30.56,318Z"/><path d="M35.43,318a12.42,12.42,0,0,0,2.12-3.77,32.11,32.11,0,0,0,1.26-4.16,61,61,0,0,0,1.31-8.6c.5-5.78.31-11.59.3-17.4l-.09-34.86-.15-69.71.15-69.71.09-34.86c0-5.81.2-11.62-.31-17.4a59.52,59.52,0,0,0-1.3-8.6,32.11,32.11,0,0,0-1.26-4.16A12.42,12.42,0,0,0,35.43,41a12.79,12.79,0,0,1,2.18,3.75,33.46,33.46,0,0,1,1.31,4.16,61,61,0,0,1,1.43,8.6c.58,5.79.47,11.62.53,17.42L41,109.79l.16,69.71L41,249.21l-.08,34.86c-.06,5.8,0,11.63-.54,17.42a59.56,59.56,0,0,1-1.42,8.6,33.46,33.46,0,0,1-1.31,4.16A12.79,12.79,0,0,1,35.43,318Z"/><path d="M40,318c.36-.12.53-.49.71-.79a7.85,7.85,0,0,0,.4-1,19.19,19.19,0,0,0,.54-2.11c.27-1.42.46-2.86.59-4.31.28-2.89.4-5.79.46-8.69.11-5.8,0-11.61,0-17.42l-.08-34.85-.16-69.71h.94v.78h-1l.16-69.71.08-34.85c0-5.81.13-11.62,0-17.42-.06-2.9-.18-5.8-.46-8.69-.13-1.45-.33-2.89-.59-4.31a19.19,19.19,0,0,0-.54-2.11,7.85,7.85,0,0,0-.4-1c-.18-.3-.35-.67-.71-.79.36.12.54.49.72.79a7.29,7.29,0,0,1,.42,1,16.8,16.8,0,0,1,.56,2.11c.29,1.42.5,2.86.65,4.31.32,2.88.48,5.79.58,8.69.18,5.81.15,11.62.2,17.43l.09,34.85.16,69.71h-1v-.78h.94l-.15,69.71-.09,34.85c-.05,5.81,0,11.62-.2,17.43-.1,2.9-.26,5.81-.58,8.69-.15,1.45-.36,2.89-.65,4.31a16.8,16.8,0,0,1-.56,2.11,7.29,7.29,0,0,1-.42,1C40.54,317.51,40.36,317.88,40,318Z"/><path d="M44.29,318a102.28,102.28,0,0,0,1-17.31l-.11-17.37-.08-34.73L45,179.11h.94v.78H45l.15-69.48.09-34.73.11-17.37a102.28,102.28,0,0,0-1-17.31,101.29,101.29,0,0,1,1.27,17.31l.12,17.37.08,34.73.16,69.48H45v-.78h.94l-.16,69.48-.08,34.73-.12,17.37A101.29,101.29,0,0,1,44.29,318Z"/><path d="M67.17,318A8.05,8.05,0,0,1,63.65,316l-.73-.73-.65-.8a16.52,16.52,0,0,1-1.17-1.7,28.92,28.92,0,0,1-3-7.66,72.1,72.1,0,0,1-1.62-16.38l-.09-32.92-.14-65.84h.89v1.54h-.89c-.06-12.84,0-25.68,0-38.52l.09-38.51.08-38.52c0-6.4-.07-12.88,1.05-19.23a35.13,35.13,0,0,1,2.91-9.17,16.27,16.27,0,0,1,2.71-4,8.59,8.59,0,0,1,4-2.55,8.5,8.5,0,0,0-4,2.59,16.16,16.16,0,0,0-2.65,4,34.77,34.77,0,0,0-2.77,9.16c-1,6.33-.83,12.77-.81,19.18l.08,38.52.09,38.51c0,12.84.09,25.68,0,38.52h-.89v-1.54h.89L57,255.76l-.08,32.92A71.54,71.54,0,0,0,58.33,305a28.34,28.34,0,0,0,2.87,7.66,15.66,15.66,0,0,0,1.13,1.7l.64.81.72.73A8,8,0,0,0,67.17,318Z"/><path d="M62.59,318a12,12,0,0,1-3-3.14A21,21,0,0,1,57.42,311,36.4,36.4,0,0,1,55,302.56c-1-5.82-.7-11.72-.79-17.57l-.08-35.16L54,179.5l.16-70.33L54.24,74c.09-5.85-.17-11.75.79-17.57A36.4,36.4,0,0,1,57.42,48a20.63,20.63,0,0,1,2.13-3.85,12,12,0,0,1,3-3.14,12.23,12.23,0,0,0-3,3.17A21.66,21.66,0,0,0,57.53,48a36.28,36.28,0,0,0-2.27,8.45c-.88,5.79-.54,11.67-.56,17.53l.08,35.16.16,70.33-.16,70.33L54.7,285c0,5.86-.33,11.74.56,17.53A36.28,36.28,0,0,0,57.53,311a21,21,0,0,0,2.06,3.86A12.23,12.23,0,0,0,62.59,318Z"/><path d="M57.73,318a12.37,12.37,0,0,1-2.18-3.75,31.9,31.9,0,0,1-1.32-4.16,59.56,59.56,0,0,1-1.42-8.6c-.58-5.79-.47-11.62-.54-17.42l-.08-34.86L52,179.5l.16-69.71.08-34.86c.07-5.8,0-11.63.54-17.42a59.56,59.56,0,0,1,1.42-8.6,31.9,31.9,0,0,1,1.32-4.16A12.37,12.37,0,0,1,57.73,41a12.45,12.45,0,0,0-2.13,3.77,32.11,32.11,0,0,0-1.26,4.16,60.93,60.93,0,0,0-1.3,8.6c-.51,5.78-.32,11.59-.3,17.4l.08,34.86L53,179.5l-.16,69.71-.09,34.86c0,5.81-.2,11.62.31,17.4a59.52,59.52,0,0,0,1.3,8.6,32.11,32.11,0,0,0,1.26,4.16A12.45,12.45,0,0,0,57.73,318Z"/><path d="M53.15,318c-.36-.12-.54-.49-.72-.79a7.29,7.29,0,0,1-.42-1,16.8,16.8,0,0,1-.56-2.11c-.29-1.42-.5-2.86-.65-4.31-.32-2.88-.48-5.79-.58-8.69-.18-5.81-.14-11.62-.2-17.43l-.08-34.85-.16-69.71h.94v.78h-.94l.15-69.71L50,75.33c.06-5.81,0-11.62.2-17.43.1-2.9.26-5.81.58-8.69.15-1.45.36-2.89.65-4.31A16.8,16.8,0,0,1,52,42.79a7.29,7.29,0,0,1,.42-1c.18-.3.36-.67.72-.79-.35.12-.53.49-.7.79a6.68,6.68,0,0,0-.41,1,17.14,17.14,0,0,0-.53,2.11c-.27,1.42-.46,2.86-.6,4.31-.28,2.89-.4,5.79-.46,8.69-.1,5.8,0,11.61,0,17.42l.08,34.85.16,69.71h-.94v-.78h.94l-.16,69.71-.08,34.85c0,5.81-.13,11.62,0,17.42.06,2.9.18,5.8.46,8.69.14,1.45.33,2.89.6,4.31A17.14,17.14,0,0,0,52,316.2a6.68,6.68,0,0,0,.41,1C52.62,317.51,52.8,317.88,53.15,318Z"/><path d="M48.86,318a102.31,102.31,0,0,1-1.27-17.31l-.12-17.37-.08-34.73-.16-69.48h1v.78h-1l.16-69.48.08-34.73.12-17.37A102.31,102.31,0,0,1,48.86,41a102.28,102.28,0,0,0-1,17.31l.11,17.37L48,110.41l.16,69.48h-1v-.78h1L48,248.59l-.09,34.73-.11,17.37A102.28,102.28,0,0,0,48.86,318Z"/><rect x="20.29" y="317.23" width="52.8" height="10.77"/><rect x="20" y="31" width="52.8" height="10"/><path d="M227.12,41.7a29.19,29.19,0,0,0-5.86,2.59,15.75,15.75,0,0,0-4.74,4.23h0a29,29,0,0,0-2.83,8.12,63.18,63.18,0,0,0-1.11,8.57c-.4,5.75-.19,11.53-.23,17.31l.08,34.67.12,69.35-.15,69.35,0,17.33c0,5.78-.08,11.57,0,17.33s.63,11.57,2.34,17.08a21.3,21.3,0,0,0,1.68,4,10,10,0,0,0,2.74,3.27,18.18,18.18,0,0,0,8,3.13,18.23,18.23,0,0,1-8-3,10.15,10.15,0,0,1-2.83-3.28,22.33,22.33,0,0,1-1.74-4c-1.8-5.53-2.31-11.37-2.57-17.14-.12-2.89-.08-5.78-.1-8.67l0-8.67,0-17.33-.15-69.35.13-69.35.07-34.67c.06-5.77-.13-11.56.36-17.34a65.49,65.49,0,0,1,1.24-8.6,29,29,0,0,1,2.95-8.15h0a15.76,15.76,0,0,1,4.84-4.21A29,29,0,0,1,227.12,41.7Z"/><path d="M174.52,318a11,11,0,0,0,8.06-3.53,21,21,0,0,0,4.23-7.91c.47-1.44.79-2.92,1.12-4.39s.54-3,.69-4.48c.39-3,.52-6,.63-9s.06-6,0-9.07l0-9.09,0-18.17-.15-72.68.15-72.69.07-36.34c0-3-.14-6-.45-9a47.84,47.84,0,0,0-1.64-8.89,23.87,23.87,0,0,0-1.67-4.2A11.46,11.46,0,0,0,182.7,45a18.83,18.83,0,0,0-8.18-3.71,19,19,0,0,1,8.25,3.62,11.52,11.52,0,0,1,2.92,3.48,23.47,23.47,0,0,1,1.74,4.21,48.41,48.41,0,0,1,1.77,8.92c.34,3,.51,6,.57,9.09l.09,36.34.16,72.69-.16,72.68,0,18.17,0,9.09c0,3,0,6.05-.09,9.09s-.32,6.06-.75,9.07c-.17,1.51-.49,3-.75,4.49a44.64,44.64,0,0,1-1.19,4.4,21.2,21.2,0,0,1-4.35,7.92A11.07,11.07,0,0,1,174.52,318Z"/><path d="M221.41,41a8,8,0,0,0-3.48,2.09l-.72.73-.63.81a17.38,17.38,0,0,0-1.14,1.7A28.67,28.67,0,0,0,212.57,54a72.68,72.68,0,0,0-1.39,16.33l.09,32.92.14,65.84h-.89v-1.54h.9c.05,12.84,0,25.68,0,38.52l-.09,38.51-.08,38.52c0,6.41-.23,12.85.81,19.18a34.77,34.77,0,0,0,2.77,9.16,16.16,16.16,0,0,0,2.65,4,8.55,8.55,0,0,0,4,2.59,8.51,8.51,0,0,1-4-2.55,16.31,16.31,0,0,1-2.72-4,34.74,34.74,0,0,1-2.9-9.17c-1.12-6.35-1-12.83-1.05-19.23l-.09-38.52-.08-38.51c0-12.84-.1-25.68,0-38.52h.9v1.54h-.89l.15-65.84.09-32.92a72.09,72.09,0,0,1,1.61-16.38,29,29,0,0,1,3-7.66,16.52,16.52,0,0,1,1.17-1.7l.64-.8.73-.73A8.11,8.11,0,0,1,221.41,41Z"/><path d="M216.84,41a12.06,12.06,0,0,0-3,3.17A21.09,21.09,0,0,0,211.77,48a36.28,36.28,0,0,0-2.27,8.45c-.88,5.79-.54,11.67-.56,17.53l.09,35.16.15,70.33L209,249.83,208.94,285c0,5.86-.32,11.74.56,17.53a36.28,36.28,0,0,0,2.27,8.45,21.09,21.09,0,0,0,2.07,3.86,12.06,12.06,0,0,0,3,3.17,12,12,0,0,1-3.05-3.14,20.59,20.59,0,0,1-2.12-3.85,35.94,35.94,0,0,1-2.4-8.45c-1-5.82-.69-11.72-.79-17.57l-.08-35.16-.16-70.33.16-70.33L208.48,74c.1-5.85-.17-11.75.8-17.57A35.44,35.44,0,0,1,211.67,48a20.9,20.9,0,0,1,2.12-3.85A12,12,0,0,1,216.84,41Z"/><path d="M212,41a12.66,12.66,0,0,0-2.13,3.77,35.57,35.57,0,0,0-1.26,4.16,60.93,60.93,0,0,0-1.3,8.6c-.5,5.78-.32,11.59-.3,17.4l.08,34.86.16,69.71-.16,69.71L207,284.07c0,5.81-.2,11.62.3,17.4a60.93,60.93,0,0,0,1.3,8.6,35.57,35.57,0,0,0,1.26,4.16A12.66,12.66,0,0,0,212,318a12.58,12.58,0,0,1-2.18-3.75,33.5,33.5,0,0,1-1.32-4.16,61,61,0,0,1-1.42-8.6c-.58-5.79-.47-11.62-.53-17.42l-.09-34.86-.15-69.71.16-69.71.08-34.86c.06-5.8-.05-11.63.53-17.42a61,61,0,0,1,1.42-8.6,33.5,33.5,0,0,1,1.32-4.16A12.58,12.58,0,0,1,212,41Z"/><path d="M207.39,41c-.35.12-.52.49-.7.79a7.92,7.92,0,0,0-.41,1,19.15,19.15,0,0,0-.53,2.11c-.27,1.42-.46,2.86-.59,4.31-.28,2.89-.41,5.79-.46,8.69-.11,5.8,0,11.61,0,17.42l.09,34.85.15,69.71H204v-.78H205l-.16,69.71-.09,34.85c0,5.81-.13,11.62,0,17.42.05,2.9.18,5.8.46,8.69.13,1.45.32,2.89.59,4.31a19.15,19.15,0,0,0,.53,2.11,7.92,7.92,0,0,0,.41,1c.18.3.35.67.7.79-.35-.12-.53-.49-.71-.79a8.85,8.85,0,0,1-.43-1,21.1,21.1,0,0,1-.56-2.11c-.28-1.42-.5-2.86-.65-4.31-.32-2.88-.48-5.79-.57-8.69-.19-5.81-.15-11.62-.21-17.43l-.08-34.85L204,179.11H205v.78H204l.16-69.71.08-34.85c.06-5.81,0-11.62.21-17.43.09-2.9.25-5.81.57-8.69.15-1.45.37-2.89.65-4.31a21.1,21.1,0,0,1,.56-2.11,8.85,8.85,0,0,1,.43-1C206.86,41.49,207,41.12,207.39,41Z"/><path d="M203.11,41a101.26,101.26,0,0,0-1.05,17.31l.12,17.37.08,34.73.16,69.48h-.94v-.78h.95l-.16,69.48-.08,34.73-.12,17.37A101.26,101.26,0,0,0,203.11,318a102.32,102.32,0,0,1-1.28-17.31l-.11-17.37-.09-34.73-.16-69.48h.95v.78h-.94l.15-69.48.09-34.73.11-17.37A102.32,102.32,0,0,1,203.11,41Z"/><path d="M180.23,41a8.05,8.05,0,0,1,3.52,2l.73.73.65.8a18.18,18.18,0,0,1,1.16,1.7,29,29,0,0,1,3,7.66,72.09,72.09,0,0,1,1.61,16.38l.09,32.92.15,65.84h-.89v-1.54h.9c.06,12.84,0,25.68,0,38.52L191,244.57l-.09,38.52c0,6.4.07,12.88-1,19.23a34.74,34.74,0,0,1-2.9,9.17,16.31,16.31,0,0,1-2.72,4,8.51,8.51,0,0,1-4,2.55,8.55,8.55,0,0,0,4-2.59,16.16,16.16,0,0,0,2.65-4,34.77,34.77,0,0,0,2.77-9.16c1-6.33.83-12.77.81-19.18l-.08-38.52-.09-38.51c0-12.84-.09-25.68,0-38.52h.9v1.54h-.89l.14-65.84.09-32.92A72.68,72.68,0,0,0,189.07,54a28.67,28.67,0,0,0-2.87-7.66,17.38,17.38,0,0,0-1.14-1.7l-.63-.81-.72-.73A8,8,0,0,0,180.23,41Z"/><path d="M184.8,41a12,12,0,0,1,3,3.14A20.9,20.9,0,0,1,190,48a35.94,35.94,0,0,1,2.4,8.45c1,5.82.69,11.72.79,17.57l.08,35.16.16,70.33-.16,70.33L193.16,285c-.1,5.85.17,11.75-.79,17.57A35.94,35.94,0,0,1,190,311a20.59,20.59,0,0,1-2.12,3.85,12,12,0,0,1-3,3.14,12.06,12.06,0,0,0,3-3.17,21.09,21.09,0,0,0,2.07-3.86,36.28,36.28,0,0,0,2.27-8.45c.88-5.79.54-11.67.56-17.53l-.09-35.16-.15-70.33.15-70.33L192.7,74c0-5.86.32-11.74-.56-17.53A36.28,36.28,0,0,0,189.87,48a21.09,21.09,0,0,0-2.07-3.86A12.06,12.06,0,0,0,184.8,41Z"/><path d="M189.67,41a12.58,12.58,0,0,1,2.18,3.75,31.9,31.9,0,0,1,1.32,4.16,61,61,0,0,1,1.42,8.6c.58,5.79.47,11.62.53,17.42l.09,34.86.15,69.71-.15,69.71-.09,34.86c-.06,5.8,0,11.63-.53,17.42a61,61,0,0,1-1.42,8.6,31.9,31.9,0,0,1-1.32,4.16,12.58,12.58,0,0,1-2.18,3.75,12.66,12.66,0,0,0,2.13-3.77,35.57,35.57,0,0,0,1.26-4.16,60.93,60.93,0,0,0,1.3-8.6c.5-5.78.31-11.59.3-17.4l-.08-34.86-.16-69.71.16-69.71.08-34.86c0-5.81.2-11.62-.3-17.4a60.93,60.93,0,0,0-1.3-8.6,35.57,35.57,0,0,0-1.26-4.16A12.66,12.66,0,0,0,189.67,41Z"/><path d="M194.25,41c.35.12.53.49.71.79a8.85,8.85,0,0,1,.43,1A18.7,18.7,0,0,1,196,44.9c.28,1.42.5,2.86.65,4.31.32,2.88.48,5.79.57,8.69.19,5.81.15,11.62.21,17.43l.08,34.85.16,69.71h-.94v-.78h1l-.16,69.71-.08,34.85c-.06,5.81,0,11.62-.21,17.43-.09,2.9-.25,5.81-.57,8.69-.15,1.45-.37,2.89-.65,4.31a18.7,18.7,0,0,1-.56,2.11,8.85,8.85,0,0,1-.43,1c-.18.3-.36.67-.71.79.35-.12.52-.49.7-.79a7.92,7.92,0,0,0,.41-1,19.15,19.15,0,0,0,.53-2.11c.27-1.42.46-2.86.59-4.31.28-2.89.41-5.79.46-8.69.11-5.8,0-11.61,0-17.42l-.09-34.85-.16-69.71h1v.78h-.94l.15-69.71.09-34.85c0-5.81.13-11.62,0-17.42-.05-2.9-.17-5.8-.46-8.69-.13-1.45-.32-2.89-.59-4.31a19.15,19.15,0,0,0-.53-2.11,7.92,7.92,0,0,0-.41-1C194.77,41.49,194.6,41.12,194.25,41Z"/><path d="M198.53,41a102.32,102.32,0,0,1,1.28,17.31l.11,17.37.09,34.73.15,69.48h-.94v-.78h.95L200,248.59l-.09,34.73-.11,17.37A102.32,102.32,0,0,1,198.53,318a101.26,101.26,0,0,0,1.05-17.31l-.12-17.37-.08-34.73-.16-69.48h.95v.78h-.94l.16-69.48.08-34.73.12-17.37A101.26,101.26,0,0,0,198.53,41Z"/><rect x="174.3" y="31" width="52.8" height="10.77" transform="translate(401.41 72.77) rotate(180)"/><rect x="174.59" y="318" width="52.8" height="10" transform="translate(401.99 646) rotate(180)"/><path d="M174.58,471.64a47.2,47.2,0,0,0,5.5-1.29,17.59,17.59,0,0,0,5.09-2.34h0a13.74,13.74,0,0,0,3.85-8.24,61.9,61.9,0,0,0,.28-9.35l-.11-18.81L189.12,394c0-12.54,0-25.08.12-37.62l.07-9.4a37,37,0,0,0-.68-9.29,14.26,14.26,0,0,0-1.73-4.28,9.27,9.27,0,0,0-1.43-1.81,6.92,6.92,0,0,0-1.84-1.39,16.91,16.91,0,0,0-4.41-1.51,42.56,42.56,0,0,0-4.64-.7,40.65,40.65,0,0,1,4.66.59,17.08,17.08,0,0,1,4.5,1.42,7.49,7.49,0,0,1,1.93,1.38,10.19,10.19,0,0,1,1.52,1.83,14.81,14.81,0,0,1,1.88,4.36,35.49,35.49,0,0,1,.84,9.4l.06,9.4c.11,12.54.08,25.08.12,37.62L190,431.61l-.12,18.81a63.46,63.46,0,0,1-.42,9.43,14.14,14.14,0,0,1-4.16,8.37h0a17.85,17.85,0,0,1-5.21,2.25A47.82,47.82,0,0,1,174.58,471.64Z"/><path d="M227.18,328a21.56,21.56,0,0,0-5,.65,13,13,0,0,0-4.47,2.21,11.34,11.34,0,0,0-3.16,3.82,18.17,18.17,0,0,0-1.59,4.71,50.13,50.13,0,0,0-.49,10l.06,10.12.12,40.47-.11,40.48-.07,10.12c0,3.38-.24,6.76.33,10.05a15.75,15.75,0,0,0,1.49,4.75,9,9,0,0,0,3.26,3.67c2.9,1.71,6.31,2.32,9.63,2.76-3.33-.36-6.76-.88-9.75-2.55a9.32,9.32,0,0,1-3.47-3.71,16.52,16.52,0,0,1-1.64-4.83c-.63-3.37-.41-6.78-.48-10.14l-.07-10.12L211.65,400l.12-40.47.07-10.12a49.91,49.91,0,0,1,.64-10.13,18.67,18.67,0,0,1,1.75-4.8,11.83,11.83,0,0,1,3.33-3.84,13.28,13.28,0,0,1,4.59-2.13A21.82,21.82,0,0,1,227.18,328Z"/><path d="M180.29,472a11.29,11.29,0,0,0,7.45-4.48,15,15,0,0,0,2.69-8.31c.08-1.47,0-3,0-4.47l0-4.48-.06-9c-.11-12-.08-23.92-.12-35.87h1v.8h-1l0-20.85.06-20.84.14-20.85c0-.87,0-1.73,0-2.59a17,17,0,0,0-.26-2.56,6.71,6.71,0,0,0-.26-1.26c-.11-.42-.21-.84-.34-1.25a14.47,14.47,0,0,0-1.06-2.34,11.41,11.41,0,0,0-8.23-5.68,11.54,11.54,0,0,1,8.46,5.55c1.89,3,2.21,6.68,2.24,10.13l.14,20.85.07,20.84,0,20.85h-1v-.8h1c-.05,11.95,0,23.91-.13,35.87l-.06,9,0,4.48c0,1.5,0,3-.13,4.5a15.19,15.19,0,0,1-3,8.42A11.43,11.43,0,0,1,180.29,472Z"/><path d="M184.86,472a12,12,0,0,0,6.65-6.27,15,15,0,0,0,1.17-4.49,45.79,45.79,0,0,0,.06-4.69l-.14-18.85-.11-37.7.11-37.7.14-18.85a45.79,45.79,0,0,0-.06-4.69,15,15,0,0,0-1.17-4.49,12,12,0,0,0-6.65-6.27,12.08,12.08,0,0,1,6.87,6.17,15.35,15.35,0,0,1,1.32,4.55c.17,1.59.16,3.16.18,4.73l.14,18.85.12,37.7-.12,37.7-.14,18.85c0,1.57,0,3.14-.18,4.73a15.35,15.35,0,0,1-1.32,4.55A12.08,12.08,0,0,1,184.86,472Z"/><path d="M189.73,472a8.51,8.51,0,0,0,3-3.39,15.27,15.27,0,0,0,1.5-4.3,40.32,40.32,0,0,0,.49-9.13l-.14-18.39L194.45,400l.12-36.79.14-18.39a40.91,40.91,0,0,0-.49-9.13,15.59,15.59,0,0,0-1.5-4.3,8.51,8.51,0,0,0-3-3.39,8.62,8.62,0,0,1,3.13,3.32,16.14,16.14,0,0,1,1.62,4.31,40.54,40.54,0,0,1,.72,9.19l.14,18.39.11,36.79-.12,36.79-.14,18.39a40.53,40.53,0,0,1-.71,9.19,16.14,16.14,0,0,1-1.62,4.31A8.69,8.69,0,0,1,189.73,472Z"/><path d="M194.3,472c.77-.2,1.16-1,1.47-1.63a11.58,11.58,0,0,0,.66-2.17,31,31,0,0,0,.53-4.51c.14-3,0-6.08,0-9.12l-.14-18.26-.11-36.51h1v.4h-1l.11-36.51.14-18.26c0-3,.14-6.09,0-9.12a31,31,0,0,0-.53-4.51,11.58,11.58,0,0,0-.66-2.17c-.31-.66-.7-1.43-1.47-1.63.78.17,1.2.94,1.54,1.6a11.08,11.08,0,0,1,.73,2.17,29.85,29.85,0,0,1,.66,4.52c.21,3,.16,6.1.22,9.14l.14,18.26.12,36.51h-1v-.4h1l-.12,36.51-.14,18.26c-.06,3,0,6.09-.23,9.14a29.83,29.83,0,0,1-.65,4.52,11.08,11.08,0,0,1-.73,2.17C195.5,471.06,195.08,471.83,194.3,472Z"/><path d="M198.59,472a28.57,28.57,0,0,0,1-8.92l-.11-9L199.37,436l-.12-36.16h1v.4h-1l.12-36.16.14-18.08.11-9a28.57,28.57,0,0,0-1-8.92,27.5,27.5,0,0,1,1.29,8.92l.12,9,.14,18.08.11,36.16h-1v-.4h1L200.13,436,200,454l-.11,9A27.5,27.5,0,0,1,198.59,472Z"/><path d="M221.47,472a11.45,11.45,0,0,1-7.63-4.34,15.26,15.26,0,0,1-3-8.42c-.13-1.51-.12-3-.13-4.5l0-4.48-.06-9c-.11-12-.08-23.92-.13-35.87h1v.8h-1l0-20.85.06-20.84.15-20.85c0-3.45.35-7.12,2.24-10.13a11.54,11.54,0,0,1,8.46-5.55,11.39,11.39,0,0,0-8.23,5.68,14.47,14.47,0,0,0-1.06,2.34c-.13.41-.23.83-.34,1.25a6.71,6.71,0,0,0-.26,1.26,17,17,0,0,0-.26,2.56c0,.86,0,1.72,0,2.59l.15,20.85.06,20.84,0,20.85h-1v-.8h1c0,11.95,0,23.91-.12,35.87l-.06,9,0,4.48c0,1.5,0,3,0,4.47a15,15,0,0,0,2.69,8.31A11.29,11.29,0,0,0,221.47,472Z"/><path d="M216.9,472a12.08,12.08,0,0,1-6.87-6.17,15.35,15.35,0,0,1-1.32-4.55c-.17-1.59-.16-3.16-.18-4.73l-.14-18.85-.12-37.7.12-37.7.14-18.85a47,47,0,0,1,.18-4.73,15.35,15.35,0,0,1,1.32-4.55A12.08,12.08,0,0,1,216.9,328a12,12,0,0,0-6.65,6.27,15,15,0,0,0-1.17,4.49,45.79,45.79,0,0,0-.06,4.69l.14,18.85.11,37.7-.11,37.7L209,456.55a45.79,45.79,0,0,0,.06,4.69,15,15,0,0,0,1.17,4.49A12,12,0,0,0,216.9,472Z"/><path d="M212,472a8.62,8.62,0,0,1-3.13-3.32,15.81,15.81,0,0,1-1.62-4.31,40.54,40.54,0,0,1-.72-9.19l-.14-18.39L206.31,400l.11-36.79.14-18.39a40.54,40.54,0,0,1,.72-9.19,15.81,15.81,0,0,1,1.62-4.31A8.62,8.62,0,0,1,212,328a8.61,8.61,0,0,0-3,3.39,15.56,15.56,0,0,0-1.49,4.3,40.32,40.32,0,0,0-.49,9.13l.14,18.39.12,36.79-.12,36.79-.14,18.39a40.32,40.32,0,0,0,.49,9.13,15.56,15.56,0,0,0,1.49,4.3A8.61,8.61,0,0,0,212,472Z"/><path d="M207.45,472c-.77-.17-1.19-.94-1.53-1.6a11.82,11.82,0,0,1-.74-2.17,31.15,31.15,0,0,1-.65-4.52c-.21-3-.16-6.1-.22-9.14l-.14-18.26-.12-36.51h1v.4h-1l.12-36.51.14-18.26c.06-3,0-6.09.22-9.14a31.15,31.15,0,0,1,.65-4.52,11.82,11.82,0,0,1,.74-2.17c.33-.66.76-1.43,1.53-1.6-.76.2-1.15,1-1.46,1.63a11.58,11.58,0,0,0-.66,2.17,31,31,0,0,0-.53,4.51c-.14,3,0,6.08,0,9.12l.14,18.26.11,36.51h-1v-.4h1l-.12,36.51-.13,18.26c0,3-.14,6.09,0,9.12a31,31,0,0,0,.53,4.51,11.58,11.58,0,0,0,.66,2.17C206.3,471,206.69,471.8,207.45,472Z"/><path d="M203.17,472a27.5,27.5,0,0,1-1.29-8.92l-.12-9L201.62,436l-.11-36.16h1v.4h-1l.11-36.16.14-18.08.11-9a27.78,27.78,0,0,1,1.3-8.92,28.28,28.28,0,0,0-1,8.92l.11,9,.14,18.08.12,36.16h-1v-.4h1L202.39,436,202.25,454l-.11,9A28.28,28.28,0,0,0,203.17,472Z"/><rect x="174.59" y="472" width="52.8" height="25"/><polygon points="167.67 318 147.18 318 99.74 41 79.26 41 79.26 31 90.04 31 156.89 328 167.67 328 167.67 318"/><path d="M363.48,348.12a88.6,88.6,0,0,0-42-25.24V322c15-6.68,20.35-12.77,26-18.29q21-19.14,21-52.67c0-31.63-7.73-51-35.23-66.08-10.72-5.89-16.37-7.48-33.42-10-7.37-1.08-32.2-1-40.36-1H221v31c.37-15,21-18,38-18,11.07,0,24.65,4.05,36.25,12.31,14.27,10.15,25.55,26.67,25.55,49.87,0,24.67-5,40.38-15,51.11C295.79,311.32,268,318,246,318l-.06,10h19c23.46,0,50.84,18.26,58.44,41.87,3.64,11.31,5.46,22.34,5.46,39.07,0,46.72-12.8,68.06-38.68,73.06a126,126,0,0,1-14,1c-20.48,1-43.18-11-43.18-11v25h44.48q48.52,0,79.56-29.6,28-26.11,28-59.2Q385,371.19,363.48,348.12Z"/></g></svg>