<svg width="69" height="137" viewBox="0 0 69 137" fill="none" xmlns="http://www.w3.org/2000/svg">
<path fill-rule="evenodd" clip-rule="evenodd" d="M68.6667 25H54V22H68.6667V25Z" fill="#4AFFD3"/>
<path fill-rule="evenodd" clip-rule="evenodd" d="M65.667 36.6667L65.667 22L68.667 22L68.667 36.6667L65.667 36.6667Z" fill="#4AFFD3"/>
<path fill-rule="evenodd" clip-rule="evenodd" d="M0.333328 25L15 25L15 22L0.333328 22L0.333328 25Z" fill="#4AFFD3"/>
<path fill-rule="evenodd" clip-rule="evenodd" d="M3 36.6667L3 22L0 22L-6.41101e-07 36.6667L3 36.6667Z" fill="#4AFFD3"/>
<path fill-rule="evenodd" clip-rule="evenodd" d="M68.6667 86L54 86L54 89L68.6667 89L68.6667 86Z" fill="#4AFFD3"/>
<path fill-rule="evenodd" clip-rule="evenodd" d="M65.667 73.9998L65.667 88.6665L68.667 88.6665L68.667 73.9998L65.667 73.9998Z" fill="#4AFFD3"/>
<path fill-rule="evenodd" clip-rule="evenodd" d="M0.333328 85.7002H15V88.7002H0.333328V85.7002Z" fill="#4AFFD3"/>
<path fill-rule="evenodd" clip-rule="evenodd" d="M3 74.0003L3 88.667L0 88.667L6.41101e-07 74.0003L3 74.0003Z" fill="#4AFFD3"/>
<path fill-rule="evenodd" clip-rule="evenodd" d="M66.5285 87.8369L66.5285 24.4715L2.47147 24.4715L2.47146 87.8369L66.5285 87.8369ZM67 24L2 24L2 88.3084L67 88.3084L67 24Z" fill="#4AFFD3"/>
<path fill-rule="evenodd" clip-rule="evenodd" d="M33 137L33 4.37117e-08L34 0L34 137L33 137Z" fill="#4AFFD3"/>
</svg>
