<svg width="23" height="22" viewBox="0 0 23 22" fill="none" xmlns="http://www.w3.org/2000/svg">
<path d="M20.2935 0H3.10596C1.81201 0 0.762207 1.0498 0.762207 2.34375V19.5312C0.762207 20.8252 1.81201 21.875 3.10596 21.875H20.2935C21.5874 21.875 22.6372 20.8252 22.6372 19.5312V2.34375C22.6372 1.0498 21.5874 0 20.2935 0ZM7.81787 14.0137C6.104 14.0137 4.71729 12.627 4.71729 10.9131C4.71729 9.19922 6.104 7.8125 7.81787 7.8125C9.53174 7.8125 10.9185 9.19922 10.9185 10.9131C10.9185 12.627 9.53174 14.0137 7.81787 14.0137ZM15.5815 14.0137C13.8677 14.0137 12.481 12.627 12.481 10.9131C12.481 9.19922 13.8677 7.8125 15.5815 7.8125C17.2954 7.8125 18.6821 9.19922 18.6821 10.9131C18.6821 12.627 17.2954 14.0137 15.5815 14.0137Z" fill="white"/>
</svg>
