<svg width="26" height="21" viewBox="0 0 26 21" fill="none" xmlns="http://www.w3.org/2000/svg">
<path d="M22.9424 5.06025C22.9583 5.28232 22.9583 5.50444 22.9583 5.72651C22.9583 12.5 17.8028 20.3045 8.38022 20.3045C5.47729 20.3045 2.78062 19.4638 0.512207 18.0044C0.924658 18.052 1.32119 18.0679 1.74951 18.0679C4.14478 18.0679 6.34976 17.2589 8.11055 15.8788C5.85801 15.8312 3.97031 14.356 3.31992 12.3255C3.63721 12.373 3.95444 12.4048 4.2876 12.4048C4.74761 12.4048 5.20767 12.3413 5.63594 12.2303C3.28823 11.7544 1.52739 9.69224 1.52739 7.20176V7.13833C2.20947 7.51904 3.00269 7.75698 3.84336 7.78867C2.46328 6.8686 1.55913 5.29819 1.55913 3.52153C1.55913 2.56978 1.81289 1.69731 2.25708 0.935889C4.7793 4.04502 8.57056 6.07544 12.8218 6.29756C12.7425 5.91685 12.6949 5.52031 12.6949 5.12373C12.6949 2.3001 14.9791 0 17.8186 0C19.2938 0 20.6263 0.618652 21.5623 1.61802C22.7202 1.39595 23.8306 0.967627 24.8142 0.380713C24.4334 1.57046 23.6244 2.56982 22.5616 3.2043C23.5927 3.09331 24.5921 2.80771 25.5121 2.41118C24.8143 3.42637 23.9417 4.33052 22.9424 5.06025Z" fill="white"/>
</svg>
