<svg width="23" height="22" viewBox="0 0 23 22" fill="none" xmlns="http://www.w3.org/2000/svg">
<path d="M9.7583 8.30566L14.4067 10.9473L9.7583 13.5889V8.30566ZM22.5122 2.34375V19.5312C22.5122 20.8252 21.4624 21.875 20.1685 21.875H2.98096C1.68701 21.875 0.637207 20.8252 0.637207 19.5312V2.34375C0.637207 1.0498 1.68701 0 2.98096 0H20.1685C21.4624 0 22.5122 1.0498 22.5122 2.34375ZM20.4614 10.9521C20.4614 10.9521 20.4614 8.04199 20.0903 6.64551C19.8853 5.87402 19.2847 5.26855 18.5181 5.06348C17.1362 4.6875 11.5747 4.6875 11.5747 4.6875C11.5747 4.6875 6.01318 4.6875 4.63135 5.06348C3.86475 5.26855 3.26416 5.87402 3.05908 6.64551C2.68799 8.03711 2.68799 10.9521 2.68799 10.9521C2.68799 10.9521 2.68799 13.8623 3.05908 15.2588C3.26416 16.0303 3.86475 16.6113 4.63135 16.8164C6.01318 17.1875 11.5747 17.1875 11.5747 17.1875C11.5747 17.1875 17.1362 17.1875 18.5181 16.8115C19.2847 16.6064 19.8853 16.0254 20.0903 15.2539C20.4614 13.8623 20.4614 10.9521 20.4614 10.9521Z" fill="white"/>
</svg>
