<svg width="150" height="150" viewBox="0 0 150 150" fill="none" xmlns="http://www.w3.org/2000/svg">
<path fill-rule="evenodd" clip-rule="evenodd" d="M130 22H115.333V19H130V22Z" fill="#4AFFD3"/>
<path fill-rule="evenodd" clip-rule="evenodd" d="M127 33.6667L127 19L130 19L130 33.6667L127 33.6667Z" fill="#4AFFD3"/>
<path fill-rule="evenodd" clip-rule="evenodd" d="M57.3333 22L72 22L72 19L57.3333 19L57.3333 22Z" fill="#4AFFD3"/>
<path fill-rule="evenodd" clip-rule="evenodd" d="M60 33.6667L60 19L57 19L57 33.6667L60 33.6667Z" fill="#4AFFD3"/>
<path fill-rule="evenodd" clip-rule="evenodd" d="M130 88.9999L115.333 88.9999L115.333 91.9999L130 91.9999L130 88.9999Z" fill="#4AFFD3"/>
<path fill-rule="evenodd" clip-rule="evenodd" d="M127 77L127 91.6667L130 91.6667L130 77L127 77Z" fill="#4AFFD3"/>
<path fill-rule="evenodd" clip-rule="evenodd" d="M57.3333 88.7H72V91.7H57.3333V88.7Z" fill="#4AFFD3"/>
<path fill-rule="evenodd" clip-rule="evenodd" d="M60 77L60 91.6667L57 91.6667L57 77L60 77Z" fill="#4AFFD3"/>
<path fill-rule="evenodd" clip-rule="evenodd" d="M127.167 88.9659L127.167 21.7661L59.2331 21.766L59.2331 88.9659L127.167 88.9659ZM127.667 21.2661L58.7331 21.266L58.7331 89.4659L127.667 89.4659L127.667 21.2661Z" fill="#4AFFD3"/>
<path fill-rule="evenodd" clip-rule="evenodd" d="M91 150L91 4.37114e-08L92 0L92 150L91 150Z" fill="#4AFFD3"/>
<path fill-rule="evenodd" clip-rule="evenodd" d="M8.74228e-08 55L150 55L150 56L0 56L8.74228e-08 55Z" fill="#4AFFD3"/>
</svg>
