<svg width="1920" height="4369" viewBox="0 0 1920 4369" fill="none" xmlns="http://www.w3.org/2000/svg">
<path fill-rule="evenodd" clip-rule="evenodd" d="M533.211 347.66L510.422 347.66L510.422 343L533.211 343L533.211 347.66Z" fill="#4AFFD3"/>
<path fill-rule="evenodd" clip-rule="evenodd" d="M528.55 365.781L528.55 343L533.212 343L533.212 365.781L528.55 365.781Z" fill="#4AFFD3"/>
<path fill-rule="evenodd" clip-rule="evenodd" d="M423.061 347.66L445.851 347.66L445.851 343L423.061 343L423.061 347.66Z" fill="#4AFFD3"/>
<path fill-rule="evenodd" clip-rule="evenodd" d="M427.202 365.781L427.202 343L422.541 343L422.541 365.781L427.202 365.781Z" fill="#4AFFD3"/>
<path fill-rule="evenodd" clip-rule="evenodd" d="M533.211 448.651L510.422 448.651L510.422 453.31L533.211 453.31L533.211 448.651Z" fill="#4AFFD3"/>
<path fill-rule="evenodd" clip-rule="evenodd" d="M528.55 430.012L528.55 452.793L533.212 452.793L533.212 430.012L528.55 430.012Z" fill="#4AFFD3"/>
<path fill-rule="evenodd" clip-rule="evenodd" d="M423.061 448.651L445.851 448.651L445.851 453.31L423.061 453.31L423.061 448.651Z" fill="#4AFFD3"/>
<path fill-rule="evenodd" clip-rule="evenodd" d="M427.202 430.479L427.202 453.259L422.541 453.259L422.541 430.479L427.202 430.479Z" fill="#4AFFD3"/>
<path fill-rule="evenodd" clip-rule="evenodd" d="M530.71 450.753L530.71 346.377L425.154 346.377L425.154 450.753L530.71 450.753ZM531.487 345.6L424.377 345.6L424.377 451.53L531.487 451.53L531.487 345.6Z" fill="#4AFFD3"/>
<path fill-rule="evenodd" clip-rule="evenodd" d="M477 4369L477 -9.49302e-06L478 -9.53674e-06L478 4369L477 4369Z" fill="#4AFFD3"/>
<path fill-rule="evenodd" clip-rule="evenodd" d="M0.00094804 397.037L1920 397.037L1920 398.037L0.000947952 398.036L0.00094804 397.037Z" fill="#4AFFD3"/>
<path fill-rule="evenodd" clip-rule="evenodd" d="M1387.9 3459.54L1410.69 3459.54L1410.69 3464.2L1387.9 3464.2L1387.9 3459.54Z" fill="#4AFFD3"/>
<path fill-rule="evenodd" clip-rule="evenodd" d="M1392.56 3441.42L1392.56 3464.2L1387.9 3464.2L1387.9 3441.42L1392.56 3441.42Z" fill="#4AFFD3"/>
<path fill-rule="evenodd" clip-rule="evenodd" d="M1500.81 3459.54L1478.02 3459.54L1478.02 3464.2L1500.81 3464.2L1500.81 3459.54Z" fill="#4AFFD3"/>
<path fill-rule="evenodd" clip-rule="evenodd" d="M1496.67 3441.42L1496.67 3464.2L1501.33 3464.2L1501.33 3441.42L1496.67 3441.42Z" fill="#4AFFD3"/>
<path fill-rule="evenodd" clip-rule="evenodd" d="M1387.9 3356.66L1410.69 3356.66L1410.69 3352L1387.9 3352L1387.9 3356.66Z" fill="#4AFFD3"/>
<path fill-rule="evenodd" clip-rule="evenodd" d="M1392.56 3375.3L1392.56 3352.52L1387.9 3352.52L1387.9 3375.3L1392.56 3375.3Z" fill="#4AFFD3"/>
<path fill-rule="evenodd" clip-rule="evenodd" d="M1500.81 3356.66L1478.02 3356.66L1478.02 3352L1500.81 3352L1500.81 3356.66Z" fill="#4AFFD3"/>
<path fill-rule="evenodd" clip-rule="evenodd" d="M1496.67 3374.83L1496.67 3352.05L1501.33 3352.05L1501.33 3374.83L1496.67 3374.83Z" fill="#4AFFD3"/>
<path fill-rule="evenodd" clip-rule="evenodd" d="M1392.3 3355.53L1392.3 3459.9L1497.86 3459.9L1497.86 3355.53L1392.3 3355.53ZM1391.52 3460.68L1498.63 3460.68L1498.63 3354.75L1391.52 3354.75L1391.52 3460.68Z" fill="#4AFFD3"/>
<path fill-rule="evenodd" clip-rule="evenodd" d="M1446 139L1446 4369L1445 4369L1445 139L1446 139Z" fill="#4AFFD3"/>
<path fill-rule="evenodd" clip-rule="evenodd" d="M1920 3409.58L-8.7442e-08 3409.58L0 3408.58L1920 3408.58L1920 3409.58Z" fill="#4AFFD3"/>
</svg>
