<svg width="1918" height="5151" viewBox="0 0 1918 5151" fill="none" xmlns="http://www.w3.org/2000/svg">
<path fill-rule="evenodd" clip-rule="evenodd" d="M1408.67 222.9H1432.62V218H1408.67V222.9Z" fill="#4AFFD3"/>
<path fill-rule="evenodd" clip-rule="evenodd" d="M1413.57 241.956L1413.57 218L1408.67 218L1408.67 241.956L1413.57 241.956Z" fill="#4AFFD3"/>
<path fill-rule="evenodd" clip-rule="evenodd" d="M1524.45 222.9L1500.5 222.9L1500.5 218L1524.45 218L1524.45 222.9Z" fill="#4AFFD3"/>
<path fill-rule="evenodd" clip-rule="evenodd" d="M1520.1 241.956L1520.1 218L1525 218L1525 241.956L1520.1 241.956Z" fill="#4AFFD3"/>
<path fill-rule="evenodd" clip-rule="evenodd" d="M1408.67 329.1L1432.62 329.1L1432.62 334L1408.67 334L1408.67 329.1Z" fill="#4AFFD3"/>
<path fill-rule="evenodd" clip-rule="evenodd" d="M1413.57 309.5L1413.57 333.456L1408.67 333.456L1408.67 309.5L1413.57 309.5Z" fill="#4AFFD3"/>
<path fill-rule="evenodd" clip-rule="evenodd" d="M1524.45 329.1H1500.5V334H1524.45V329.1Z" fill="#4AFFD3"/>
<path fill-rule="evenodd" clip-rule="evenodd" d="M1520.1 309.99L1520.1 333.946L1525 333.946L1525 309.99L1520.1 309.99Z" fill="#4AFFD3"/>
<path fill-rule="evenodd" clip-rule="evenodd" d="M1411.3 331.311L1411.3 221.551L1522.25 221.551L1522.25 331.311L1411.3 331.311ZM1410.48 220.735L1523.07 220.735L1523.07 332.128L1410.48 332.128L1410.48 220.735Z" fill="#4AFFD3"/>
<path fill-rule="evenodd" clip-rule="evenodd" d="M1470 5151L1470 -7L1469 -7L1469 5151L1470 5151Z" fill="#4AFFD3"/>
<path fill-rule="evenodd" clip-rule="evenodd" d="M1919 275L1 275L1 276L1919 276L1919 275Z" fill="#4AFFD3"/>
<path fill-rule="evenodd" clip-rule="evenodd" d="M512.344 4146.09H488.389V4150.99H512.344V4146.09Z" fill="#4AFFD3"/>
<path fill-rule="evenodd" clip-rule="evenodd" d="M507.445 4127.03L507.445 4150.99L512.345 4150.99L512.345 4127.03L507.445 4127.03Z" fill="#4AFFD3"/>
<path fill-rule="evenodd" clip-rule="evenodd" d="M393.656 4146.09L417.611 4146.09L417.611 4150.99L393.656 4150.99L393.656 4146.09Z" fill="#4AFFD3"/>
<path fill-rule="evenodd" clip-rule="evenodd" d="M398.009 4127.03L398.009 4150.99L393.109 4150.99L393.109 4127.03L398.009 4127.03Z" fill="#4AFFD3"/>
<path fill-rule="evenodd" clip-rule="evenodd" d="M512.344 4037.9L488.389 4037.9L488.389 4033L512.344 4033L512.344 4037.9Z" fill="#4AFFD3"/>
<path fill-rule="evenodd" clip-rule="evenodd" d="M507.445 4057.5L507.445 4033.54L512.345 4033.54L512.345 4057.5L507.445 4057.5Z" fill="#4AFFD3"/>
<path fill-rule="evenodd" clip-rule="evenodd" d="M393.656 4037.9H417.611V4033H393.656V4037.9Z" fill="#4AFFD3"/>
<path fill-rule="evenodd" clip-rule="evenodd" d="M398.009 4057.01L398.009 4033.05L393.109 4033.05L393.109 4057.01L398.009 4057.01Z" fill="#4AFFD3"/>
<path fill-rule="evenodd" clip-rule="evenodd" d="M507.715 4036.71L507.715 4146.47L396.757 4146.47L396.757 4036.71L507.715 4036.71ZM508.531 4147.28L395.94 4147.28L395.94 4035.89L508.531 4035.89L508.531 4147.28Z" fill="#4AFFD3"/>
<path fill-rule="evenodd" clip-rule="evenodd" d="M452 -4.37203e-08L452 4470L453 4470L453 0L452 -4.37203e-08Z" fill="#4AFFD3"/>
<path fill-rule="evenodd" clip-rule="evenodd" d="M0.00878915 4093L1918.01 4093L1918.01 4092L0.00878906 4092L0.00878915 4093Z" fill="#4AFFD3"/>
</svg>
