<svg width="74" height="150" viewBox="0 0 74 150" fill="none" xmlns="http://www.w3.org/2000/svg">
<path fill-rule="evenodd" clip-rule="evenodd" d="M7.61986e-05 128L14.6667 128L14.6667 131L7.62939e-05 131L7.61986e-05 128Z" fill="#4AFFD3"/>
<path fill-rule="evenodd" clip-rule="evenodd" d="M3 116.333L3 131L0 131L1.74898e-07 116.333L3 116.333Z" fill="#4AFFD3"/>
<path fill-rule="evenodd" clip-rule="evenodd" d="M73.6667 128L59 128L59 131L73.6667 131L73.6667 128Z" fill="#4AFFD3"/>
<path fill-rule="evenodd" clip-rule="evenodd" d="M71 116.333L71 131L74 131L74 116.333L71 116.333Z" fill="#4AFFD3"/>
<path fill-rule="evenodd" clip-rule="evenodd" d="M7.6127e-05 61L14.6667 61L14.6667 58L7.62939e-05 58L7.6127e-05 61Z" fill="#4AFFD3"/>
<path fill-rule="evenodd" clip-rule="evenodd" d="M3 73L3 58.3333L0 58.3333L-1.74898e-07 73L3 73Z" fill="#4AFFD3"/>
<path fill-rule="evenodd" clip-rule="evenodd" d="M73.6667 61L59 61L59 58L73.6667 58L73.6667 61Z" fill="#4AFFD3"/>
<path fill-rule="evenodd" clip-rule="evenodd" d="M71.0002 72.7L71.0002 58.0333L74.0002 58.0333L74.0002 72.7L71.0002 72.7Z" fill="#4AFFD3"/>
<path fill-rule="evenodd" clip-rule="evenodd" d="M2.83374 61.034L2.83374 128.234L70.7671 128.234L70.7671 61.034L2.83374 61.034ZM2.33374 128.734L71.2671 128.734L71.2671 60.534L2.33374 60.534L2.33374 128.734Z" fill="#4AFFD3"/>
<path fill-rule="evenodd" clip-rule="evenodd" d="M39 -7.54979e-08L39 150L38 150L38 0L39 -7.54979e-08Z" fill="#4AFFD3"/>
</svg>
