<svg width="87" height="87" viewBox="0 0 87 87" fill="none" xmlns="http://www.w3.org/2000/svg">
<path d="M43.5 0C19.4698 0 0 19.4698 0 43.5C0 67.5302 19.4698 87 43.5 87C67.5302 87 87 67.5302 87 43.5C87 19.4698 67.5302 0 43.5 0ZM43.5 16.8387C52.0246 16.8387 58.9355 23.7496 58.9355 32.2742C58.9355 40.7988 52.0246 47.7097 43.5 47.7097C34.9754 47.7097 28.0645 40.7988 28.0645 32.2742C28.0645 23.7496 34.9754 16.8387 43.5 16.8387ZM43.5 77.1774C33.2038 77.1774 23.9776 72.5117 17.8034 65.2149C21.101 59.0056 27.5558 54.7258 35.0806 54.7258C35.5016 54.7258 35.9226 54.796 36.326 54.9188C38.6063 55.6554 40.9917 56.129 43.5 56.129C46.0083 56.129 48.4113 55.6554 50.674 54.9188C51.0774 54.796 51.4984 54.7258 51.9194 54.7258C59.4442 54.7258 65.899 59.0056 69.1966 65.2149C63.0224 72.5117 53.7962 77.1774 43.5 77.1774Z" fill="#B1B1B1"/>
</svg>
