<svg width="21" height="19" viewBox="0 0 21 19" fill="none" xmlns="http://www.w3.org/2000/svg">
<path d="M18.7936 10.7227L20.4759 3.32084C20.5974 2.78641 20.1911 2.2775 19.6431 2.2775H5.66557L5.33939 0.682894C5.25811 0.285435 4.90837 0 4.50265 0H0.854063C0.382371 0 0 0.382371 0 0.854062V1.42344C0 1.89513 0.382371 2.2775 0.854063 2.2775H3.34092L5.84076 14.499C5.2427 14.8429 4.83969 15.4878 4.83969 16.2272C4.83969 17.3278 5.7319 18.22 6.8325 18.22C7.9331 18.22 8.82531 17.3278 8.82531 16.2272C8.82531 15.6694 8.59589 15.1655 8.22662 14.8037H15.6871C15.3179 15.1655 15.0884 15.6694 15.0884 16.2272C15.0884 17.3278 15.9807 18.22 17.0813 18.22C18.1819 18.22 19.0741 17.3278 19.0741 16.2272C19.0741 15.4382 18.6154 14.7563 17.9503 14.4335L18.1466 13.5696C18.2681 13.0352 17.8619 12.5262 17.3138 12.5262H7.7619L7.52899 11.3875H17.9608C18.3596 11.3875 18.7053 11.1116 18.7936 10.7227Z" fill="white"/>
</svg>
