<svg width="18" height="15" viewBox="0 0 18 15" fill="none" xmlns="http://www.w3.org/2000/svg">
<path d="M0.612245 2.7551H16.5306C16.8688 2.7551 17.1429 2.48101 17.1429 2.14286V0.612245C17.1429 0.274094 16.8688 0 16.5306 0H0.612245C0.274094 0 0 0.274094 0 0.612245V2.14286C0 2.48101 0.274094 2.7551 0.612245 2.7551ZM0.612245 8.87755H16.5306C16.8688 8.87755 17.1429 8.60346 17.1429 8.26531V6.73469C17.1429 6.39654 16.8688 6.12245 16.5306 6.12245H0.612245C0.274094 6.12245 0 6.39654 0 6.73469V8.26531C0 8.60346 0.274094 8.87755 0.612245 8.87755ZM0.612245 15H16.5306C16.8688 15 17.1429 14.7259 17.1429 14.3878V12.8571C17.1429 12.519 16.8688 12.2449 16.5306 12.2449H0.612245C0.274094 12.2449 0 12.519 0 12.8571V14.3878C0 14.7259 0.274094 15 0.612245 15Z" fill="white"/>
</svg>
